<svg xmlns="http://www.w3.org/2000/svg" version="1.0" preserveAspectRatio="xMidYMid meet" viewBox="66.79 56.2 168.03 109.65"><metadata>Created by potrace 1.10, written by Peter Selinger 2001-2011</metadata><g transform="translate(0.000000,225.000000) scale(0.100000,-0.100000)" fill="#F1F5F9" stroke="none"><path d="M1925 1672 c-38 -24 -65 -64 -72 -107 -6 -37 28 -115 78 -177 20 -25 29 -48 29 -72 0 -34 2 -36 35 -36 33 0 35 2 35 35 0 25 10 49 36 81 52 68 74 118 74 164 0 33 -7 48 -38 82 -35 37 -45 42 -93 45 -41 3 -61 0 -84 -15z m130 -8 c35 -16 57 -42 69 -81 l7 -23 -135 0 -136 0 11 27 c14 38 38 63 74 79 40 18 70 17 110 -2z m75 -123 c0 -38 -10 -41 -135 -41 l-123 0 -4 25 -5 25 133 0 c75 0 134 -4 134 -9z m-20 -58 c0 -5 -17 -30 -38 -58 -31 -42 -44 -51 -74 -53 -38 -3 -50 8 -103 91 l-17 27 116 0 c64 0 116 -3 116 -7z m-90 -133 c0 -5 -11 -10 -25 -10 -14 0 -25 5 -25 10 0 6 11 10 25 10 14 0 25 -4 25 -10z m-7 -27 c-7 -2 -21 -2 -30 0 -10 3 -4 5 12 5 17 0 24 -2 18 -5z m7 -23 c0 -5 -11 -10 -25 -10 -14 0 -25 5 -25 10 0 6 11 10 25 10 14 0 25 -4 25 -10z"></path><path d="M2051 1635 c0 -14 28 -50 34 -43 3 3 -3 16 -14 29 -11 13 -20 20 -20 14z"></path><path d="M1580 1579 c-45 -47 -44 -43 -30 -70 9 -16 22 -19 94 -19 61 0 87 4 96 14 17 22 8 59 -17 72 -13 6 -31 18 -41 27 -30 27 -59 20 -102 -24z m98 14 c10 -10 27 -23 38 -29 10 -6 19 -22 19 -35 0 -23 -3 -24 -81 -27 -63 -2 -84 1 -94 13 -10 13 -6 21 29 55 45 44 62 48 89 23z"></path><path d="M1143 1463 c9 -2 23 -2 30 0 6 3 -1 5 -18 5 -16 0 -22 -2 -12 -5z"></path><path d="M1628 1463 c12 -2 30 -2 40 0 9 3 -1 5 -23 4 -22 0 -30 -2 -17 -4z"></path><path d="M1708 1463 c7 -3 16 -2 19 1 4 3 -2 6 -13 5 -11 0 -14 -3 -6 -6z"></path><path d="M1338 1415 c-7 -9 -21 -24 -31 -34 -10 -10 -15 -25 -11 -34 8 -22 135 -25 153 -3 13 15 5 46 -13 46 -6 0 -19 9 -29 20 -20 24 -51 26 -69 5z m60 -13 c10 -10 26 -21 35 -25 10 -4 14 -12 11 -22 -5 -11 -22 -15 -69 -15 -62 0 -93 14 -61 26 9 3 16 12 16 20 0 12 26 33 43 34 4 0 15 -8 25 -18z"></path><path d="M2190 1374 c-49 -50 -35 -68 54 -72 101 -4 128 31 62 82 -47 35 -74 33 -116 -10z m92 6 c7 -11 21 -20 31 -20 13 0 18 -6 15 -22 -3 -21 -9 -23 -69 -26 -49 -2 -69 1 -78 12 -10 12 -9 17 8 28 12 7 21 18 21 25 0 27 56 30 72 3z"></path><path d="M1160 1383 c0 -5 8 -13 18 -19 14 -9 22 -8 37 4 18 13 18 14 2 8 -10 -3 -27 -1 -38 4 -10 6 -19 7 -19 3z"></path><path d="M1780 1360 c-8 -5 -26 -7 -40 -4 l-25 6 25 -14 c24 -14 60 -5 60 14 0 10 -2 10 -20 -2z"></path><path d="M918 1353 c12 -2 30 -2 40 0 9 3 -1 5 -23 4 -22 0 -30 -2 -17 -4z"></path><path d="M1355 1190 l-170 -170 -80 80 -81 80 -123 -125 c-69 -69 -125 -124 -126 -123 -1 2 -7 17 -12 33 -10 29 -11 27 -37 -55 -24 -79 -25 -86 -9 -97 9 -7 20 -13 25 -13 4 0 8 -4 8 -10 0 -5 -35 -11 -77 -13 -43 -1 192 -3 522 -3 330 0 558 2 508 3 -51 2 -93 8 -93 13 0 6 6 10 13 10 6 0 20 7 30 14 17 13 16 18 -9 110 -15 53 -31 96 -34 96 -4 0 -20 -44 -35 -97 -26 -92 -26 -97 -9 -110 10 -7 21 -13 26 -13 4 0 8 -4 8 -10 0 -6 -30 -10 -70 -10 -73 0 -87 9 -45 28 14 6 25 17 25 24 0 23 -51 168 -59 168 -5 0 -19 -37 -33 -82 -23 -75 -24 -85 -10 -100 8 -10 21 -18 29 -18 7 0 13 -4 13 -10 0 -6 -30 -10 -70 -10 -73 0 -87 9 -45 28 l24 11 -23 68 c-13 37 -25 75 -28 83 -4 11 -9 6 -17 -14 l-12 -29 -42 41 -43 42 165 165 166 165 99 -100 100 -100 -34 -35 c-18 -19 -31 -37 -29 -40 3 -3 48 38 99 91 l94 95 115 -115 114 -114 -26 -94 -27 -93 21 -17 c12 -10 27 -18 35 -18 8 0 14 -4 14 -10 0 -5 -54 -11 -127 -13 -71 -1 -2 -3 152 -3 154 0 247 2 208 3 -77 4 -89 12 -47 32 19 8 24 16 19 29 -4 9 -16 44 -28 77 l-20 59 -16 -34 c-8 -19 -16 -36 -17 -38 -1 -1 -20 17 -44 40 -26 26 -50 63 -60 93 -16 46 -18 48 -25 24 -6 -25 -11 -21 -117 87 -61 63 -116 114 -122 114 -6 0 -36 -25 -66 -55 l-56 -56 -105 106 -104 105 -170 -170z m-94 -320 c-13 -44 -4 -70 25 -70 8 0 14 -4 14 -10 0 -6 -42 -10 -105 -10 -106 0 -126 7 -80 28 14 6 25 17 25 23 0 18 -39 142 -49 159 -11 17 -8 24 -46 -88 l-24 -73 29 -17 c17 -9 30 -20 30 -24 0 -5 -72 -8 -160 -8 -100 0 -160 4 -160 10 0 6 4 10 8 10 5 0 16 6 25 13 17 11 17 15 2 57 l-16 44 123 123 123 123 124 -124 125 -125 -13 -41z m884 -46 c-10 -8 -22 -14 -27 -14 -11 0 -10 44 1 56 6 5 4 14 -5 22 -12 11 -14 9 -14 -14 0 -22 -2 -25 -15 -14 -11 9 -15 9 -15 1 0 -6 7 -14 15 -17 14 -6 22 -34 9 -34 -16 0 -44 23 -44 35 0 9 12 58 27 111 l27 96 30 -107 c29 -104 30 -108 11 -121z m-509 80 l22 -75 -24 -11 c-17 -8 -31 -8 -49 0 -24 11 -24 12 -9 59 8 26 18 63 21 81 8 43 14 35 39 -54z m-517 -80 c-18 -22 -32 -17 -27 10 3 14 1 31 -3 38 -6 9 -9 7 -9 -9 0 -17 -4 -21 -17 -16 -16 6 -16 4 1 -15 11 -12 14 -22 9 -22 -6 0 -16 6 -23 14 -9 12 -7 30 11 86 l23 72 24 -72 c18 -56 20 -75 11 -86z m375 29 c5 -16 2 -25 -15 -33 -20 -11 -21 -10 -17 13 3 14 1 32 -3 39 -6 9 -9 7 -9 -9 0 -17 -4 -21 -17 -16 -16 6 -16 4 1 -15 20 -23 12 -29 -14 -12 -12 7 -13 16 -3 52 6 24 17 57 23 73 l12 30 18 -50 c9 -27 20 -60 24 -72z m-708 -29 c-9 -24 -26 -15 -26 14 0 20 -3 23 -9 13 -5 -8 -7 -20 -4 -28 6 -15 -13 -18 -22 -2 -4 5 1 40 11 77 l18 66 19 -63 c10 -35 16 -69 13 -77z m1431 51 c-19 -49 -18 -55 7 -67 43 -19 29 -28 -44 -28 -40 0 -70 4 -70 10 0 6 6 10 14 10 8 0 23 8 35 18 l21 17 -20 64 -19 64 40 -39 c22 -21 38 -43 36 -49z m-889 -56 c-9 -6 -15 -1 -19 19 -4 15 -7 21 -8 14 0 -7 -5 -10 -11 -7 -14 9 -13 -8 2 -23 13 -13 0 -16 -19 -4 -10 6 -8 22 8 72 l22 63 19 -63 c16 -51 17 -64 6 -71z m957 4 c-8 -23 -25 -14 -25 15 0 20 -3 23 -9 13 -5 -8 -7 -20 -4 -28 3 -7 0 -13 -6 -13 -21 0 -23 29 -5 82 l17 53 19 -55 c10 -30 16 -60 13 -67z"></path><path d="M1603 862 c4 -19 2 -22 -10 -18 -13 5 -14 4 -3 -9 7 -9 13 -14 14 -13 1 2 7 10 14 19 10 13 9 19 -5 30 -15 13 -16 12 -10 -9z"></path><path d="M883 1323 c15 -2 37 -2 50 0 12 2 0 4 -28 4 -27 0 -38 -2 -22 -4z"></path><path d="M2228 1273 c12 -2 30 -2 40 0 9 3 -1 5 -23 4 -22 0 -30 -2 -17 -4z"></path><path d="M2308 1273 c7 -3 16 -2 19 1 4 3 -2 6 -13 5 -11 0 -14 -3 -6 -6z"></path><path d="M1054 1241 c15 -16 22 -18 33 -10 16 14 17 22 1 16 -7 -2 -22 0 -33 6 -20 10 -20 10 -1 -12z"></path><path d="M1605 1170 c21 -22 41 -40 43 -40 9 0 -63 78 -73 79 -5 1 9 -17 30 -39z"></path><path d="M2147 1182 c13 -13 16 -13 29 0 13 13 11 15 -15 15 -26 0 -27 -2 -14 -15z"></path><path d="M828 1163 c-37 -40 -27 -53 43 -53 73 0 88 19 43 56 -38 30 -55 30 -86 -3z m62 2 c7 -8 19 -15 26 -15 8 0 14 -7 14 -15 0 -12 -13 -15 -55 -15 -30 0 -55 2 -55 5 0 3 7 17 16 30 19 29 36 32 54 10z"></path><path d="M1231 1163 c9 -11 15 -11 28 -1 9 7 17 13 19 14 1 0 -11 1 -28 1 -24 0 -27 -3 -19 -14z"></path><path d="M1910 1107 c0 -2 15 -16 33 -33 l32 -29 -29 33 c-28 30 -36 37 -36 29z"></path><path d="M1930 1013 c0 -12 38 -48 45 -41 3 2 -6 15 -20 28 -14 13 -25 19 -25 13z"></path><path d="M1985 950 c3 -5 8 -10 11 -10 2 0 4 5 4 10 0 6 -5 10 -11 10 -5 0 -7 -4 -4 -10z"></path><path d="M723 713 c20 -2 54 -2 75 0 20 2 3 4 -38 4 -41 0 -58 -2 -37 -4z"></path><path d="M873 713 c9 -2 25 -2 35 0 9 3 1 5 -18 5 -19 0 -27 -2 -17 -5z"></path><path d="M1108 713 c18 -2 45 -2 60 0 15 2 0 4 -33 4 -33 0 -45 -2 -27 -4z"></path><path d="M1368 713 c23 -2 61 -2 85 0 23 2 4 4 -43 4 -47 0 -66 -2 -42 -4z"></path><path d="M1618 713 c18 -2 45 -2 60 0 15 2 0 4 -33 4 -33 0 -45 -2 -27 -4z"></path><path d="M1728 713 c6 -2 18 -2 25 0 6 3 1 5 -13 5 -14 0 -19 -2 -12 -5z"></path><path d="M2048 713 c18 -2 45 -2 60 0 15 2 0 4 -33 4 -33 0 -45 -2 -27 -4z"></path><path d="M2223 713 c9 -2 25 -2 35 0 9 3 1 5 -18 5 -19 0 -27 -2 -17 -5z"></path><path d="M673 653 c9 -2 25 -2 35 0 9 3 1 5 -18 5 -19 0 -27 -2 -17 -5z"></path><path d="M843 653 c31 -2 83 -2 115 0 31 2 5 3 -58 3 -63 0 -89 -1 -57 -3z"></path><path d="M1193 653 c31 -2 83 -2 115 0 31 2 5 3 -58 3 -63 0 -89 -1 -57 -3z"></path><path d="M1388 653 c7 -3 16 -2 19 1 4 3 -2 6 -13 5 -11 0 -14 -3 -6 -6z"></path><path d="M1483 653 c9 -2 25 -2 35 0 9 3 1 5 -18 5 -19 0 -27 -2 -17 -5z"></path><path d="M1623 653 c42 -2 112 -2 155 0 42 1 7 3 -78 3 -85 0 -120 -2 -77 -3z"></path><path d="M1988 653 c12 -2 32 -2 45 0 12 2 2 4 -23 4 -25 0 -35 -2 -22 -4z"></path><path d="M2133 653 c31 -2 83 -2 115 0 31 2 5 3 -58 3 -63 0 -89 -1 -57 -3z"></path><path d="M2328 653 c7 -3 16 -2 19 1 4 3 -2 6 -13 5 -11 0 -14 -3 -6 -6z"></path><path d="M778 593 c18 -2 45 -2 60 0 15 2 0 4 -33 4 -33 0 -45 -2 -27 -4z"></path><path d="M973 593 c20 -2 54 -2 75 0 20 2 3 4 -38 4 -41 0 -58 -2 -37 -4z"></path><path d="M1123 593 c9 -2 25 -2 35 0 9 3 1 5 -18 5 -19 0 -27 -2 -17 -5z"></path><path d="M1258 593 c18 -2 45 -2 60 0 15 2 0 4 -33 4 -33 0 -45 -2 -27 -4z"></path><path d="M1503 593 c31 -2 83 -2 115 0 31 2 5 3 -58 3 -63 0 -89 -1 -57 -3z"></path><path d="M1773 593 c20 -2 54 -2 75 0 20 2 3 4 -38 4 -41 0 -58 -2 -37 -4z"></path><path d="M1913 593 c9 -2 25 -2 35 0 9 3 1 5 -18 5 -19 0 -27 -2 -17 -5z"></path><path d="M2147 593 c18 -2 50 -2 70 0 21 2 7 4 -32 4 -38 0 -55 -2 -38 -4z"></path></g></svg>
